<?xml version="1.0" encoding="UTF-8" standalone="no"?>
<!-- Created with Inkscape (http://www.inkscape.org/) -->

<svg
   width="31.750044mm"
   height="16.970945mm"
   viewBox="0 0 31.750044 16.970945"
   version="1.1"
   id="svg1"
   inkscape:export-filename="logo"
   inkscape:export-xdpi="96"
   inkscape:export-ydpi="96"
   sodipodi:docname="logo.svg"
   xmlns:inkscape="http://www.inkscape.org/namespaces/inkscape"
   xmlns:sodipodi="http://sodipodi.sourceforge.net/DTD/sodipodi-0.dtd"
   xmlns="http://www.w3.org/2000/svg"
   xmlns:svg="http://www.w3.org/2000/svg">
  <sodipodi:namedview
     id="namedview1"
     pagecolor="#ffffff"
     bordercolor="#000000"
     borderopacity="0.25"
     inkscape:showpageshadow="2"
     inkscape:pageopacity="0.0"
     inkscape:pagecheckerboard="0"
     inkscape:deskcolor="#d1d1d1"
     inkscape:document-units="mm">
    <inkscape:page
       x="0"
       y="0"
       width="31.750044"
       height="16.970943"
       id="page1"
       margin="0"
       bleed="0" />
  </sodipodi:namedview>
  <defs
     id="defs1" />
  <g
     inkscape:label="Layer 1"
     inkscape:groupmode="layer"
     id="layer1"
     transform="translate(-58.401568,-105.84289)">
    <path
       style="font-weight:500;font-size:50.8px;font-family:'Formal Script';-inkscape-font-specification:'Formal Script Medium';stroke:#000000;stroke-width:0"
       d="m 61.652768,115.19009 c -0.6096,0.5588 -1.1684,1.1176 -1.8288,1.8288 -0.0508,-0.2032 0,-0.4064 0,-0.5588 0.1524,-0.7112 0.508,-1.4732 1.2192,-1.4732 0.2032,0 0.4064,0.0508 0.6096,0.2032 z m -1.6764,2.794 1.8796,-1.5748 c 0.2032,-0.2032 0.3556,-0.3048 0.508,-0.4572 0.8128,1.0668 1.6764,2.8956 2.6924,4.3688 -0.6604,0.6604 -1.3716,1.1176 -1.8796,1.1176 -1.4224,0.0508 -2.7432,-1.8796 -3.2004,-3.4544 z m 3.6068,-2.9972 c 1.016,-0.8128 1.9812,-1.3716 4.6736,-3.2512 1.1176,-0.762 1.9304,-1.4224 2.7432,-2.032 -0.3048,1.0668 -0.6604,1.7272 -1.1176,2.8448 -1.016,2.2352 -2.4892,4.9276 -3.9624,6.8072 -0.8636,-1.4224 -1.524,-3.1496 -2.3368,-4.3688 z m -4.6736,3.8608 c 0.6604,2.0828 2.3368,4.064 4.3688,3.9624 1.2192,-0.0508 2.1844,-0.4064 3.048,-1.016 0.6604,0.6096 1.4224,1.016 2.286,1.016 1.6764,-0.0508 3.2004,-1.524 4.6228,-3.1496 l 0.7112,-0.762 0.6096,-0.8636 -0.6096,-0.1524 -1.1176,1.1176 c -0.9652,0.9144 -2.8956,2.7432 -3.9116,2.6416 -0.6096,-0.0508 -1.1684,-0.3048 -1.6256,-0.6604 2.3876,-2.4384 3.556,-6.7056 5.0292,-10.0584 0.762,-1.7272 1.4732,-2.5908 2.1844,-4.1656 0.1524,-0.2032 0.3556,-0.3048 0.5588,-0.508 l -1.4224,-0.4064 c -3.7592,2.6416 -5.2832,4.2672 -9.3472,7.2136 -0.508,0.3556 -0.9652,0.7112 -1.4224,1.0668 -0.508,-0.5588 -1.1176,-0.8636 -1.8288,-0.762 -1.7272,0.1524 -2.4384,1.9812 -2.4384,3.7592 0,0.3048 0.0508,0.6096 0.1016,0.9652 l -0.3048,0.508 0.4572,0.3556 z m 17.830845,-3.6576 c -0.6096,0.5588 -1.1684,1.1176 -1.8288,1.8288 -0.0508,-0.2032 0,-0.4064 0,-0.5588 0.1524,-0.7112 0.508,-1.4732 1.2192,-1.4732 0.2032,0 0.4064,0.0508 0.6096,0.2032 z m -1.6764,2.794 1.8796,-1.5748 c 0.2032,-0.2032 0.3556,-0.3048 0.508,-0.4572 0.8128,1.0668 1.6764,2.8956 2.6924,4.3688 -0.6604,0.6604 -1.3716,1.1176 -1.8796,1.1176 -1.4224,0.0508 -2.7432,-1.8796 -3.2004,-3.4544 z m 3.6068,-2.9972 c 1.016,-0.8128 1.9812,-1.3716 4.6736,-3.2512 1.1176,-0.762 1.9304,-1.4224 2.7432,-2.032 -0.3048,1.0668 -0.6604,1.7272 -1.1176,2.8448 -1.016,2.2352 -2.4892,4.9276 -3.9624,6.8072 -0.8636,-1.4224 -1.524,-3.1496 -2.3368,-4.3688 z m -4.6736,3.8608 c 0.6604,2.0828 2.3368,4.064 4.3688,3.9624 1.2192,-0.0508 2.1844,-0.4064 3.048,-1.016 0.6604,0.6096 1.4224,1.016 2.286,1.016 1.6764,-0.0508 3.2004,-1.524 4.6228,-3.1496 l 0.7112,-0.762 0.6096,-0.8636 -0.6096,-0.1524 -1.1176,1.1176 c -0.9652,0.9144 -2.8956,2.7432 -3.9116,2.6416 -0.6096,-0.0508 -1.1684,-0.3048 -1.6256,-0.6604 2.3876,-2.4384 3.556,-6.7056 5.0292,-10.0584 0.762,-1.7272 1.4732,-2.5908 2.1844,-4.1656 0.1524,-0.2032 0.3556,-0.3048 0.5588,-0.508 l -1.4224,-0.4064 c -3.7592,2.6416 -5.2832,4.2672 -9.3472,7.2136 -0.508,0.3556 -0.9652,0.7112 -1.4224,1.0668 -0.508,-0.5588 -1.1176,-0.8636 -1.8288,-0.762 -1.7272,0.1524 -2.4384,1.9812 -2.4384,3.7592 0,0.3048 0.0508,0.6096 0.1016,0.9652 l -0.3048,0.508 0.4572,0.3556 z"
       id="text1"
       aria-label="ss" />
  </g>
</svg>
